HIERARCHY
ROOT Hips
{
	OFFSET 0.000000 35.082581 0.000000
	CHANNELS 6 Xposition Yposition Zposition Xrotation Yrotation Zrotation 
	JOINT Spine
	{
		OFFSET 0.000000 6.876099 0.125700
		CHANNELS 3 Xrotation Yrotation Zrotation
		JOINT Spine1
		{
			OFFSET 0.000000 5.730043 0.104720
			CHANNELS 3 Xrotation Yrotation Zrotation
			JOINT Spine1_split
			{
				OFFSET 0.000000 5.730043 0.104720
				CHANNELS 3 Xrotation Yrotation Zrotation
				JOINT Spine2
				{
					OFFSET 0.000000 5.730043 0.104720
					CHANNELS 3 Xrotation Yrotation Zrotation
					JOINT Neck
					{
						OFFSET 0.000000 10.314075 0.188496
						CHANNELS 3 Xrotation Yrotation Zrotation
						JOINT Head
						{
							OFFSET 0.000000 7.643700 -2.377400
							CHANNELS 3 Xrotation Yrotation Zrotation
							JOINT HeadTop_End
							{
								OFFSET 0.000000 43.788605 -13.619600
								CHANNELS 3 Xrotation Yrotation Zrotation
								End Site
								{
									OFFSET 0.000000 0.000000 0.000000
								}
							}
						}
					}
					JOINT LeftShoulder
					{
						OFFSET 2.196100 4.412489 0.087492
						CHANNELS 3 Xrotation Yrotation Zrotation
						JOINT LeftShoulder_split
						{
							OFFSET 2.196100 4.412489 0.087492
							CHANNELS 3 Xrotation Yrotation Zrotation
							JOINT LeftArm
							{
								OFFSET 8.771219 -2.981674 -0.026999
								CHANNELS 3 Xrotation Yrotation Zrotation
								JOINT LeftForeArm
								{
									OFFSET 8.512804 0.000000 -0.000000
									CHANNELS 3 Xrotation Yrotation Zrotation
									JOINT LeftHand
									{
										OFFSET 18.484802 0.000000 -0.000000
										CHANNELS 3 Xrotation Yrotation Zrotation
										JOINT LeftHandThumb1
										{
											OFFSET 2.499420 -1.158070 2.653252
											CHANNELS 3 Xrotation Yrotation Zrotation
											JOINT LeftHandThumb2
											{
												OFFSET 2.370079 -1.368366 1.368366
												CHANNELS 3 Xrotation Yrotation Zrotation
												JOINT LeftHandThumb3
												{
													OFFSET 2.676727 -1.545410 1.545409
													CHANNELS 3 Xrotation Yrotation Zrotation
													JOINT LeftHandThumb4
													{
														OFFSET 1.692226 -0.977005 0.977007
														CHANNELS 3 Xrotation Yrotation Zrotation
														End Site
														{
															OFFSET 0.000000 0.000000 0.000000
														}
													}
												}
											}
										}
										JOINT LeftHandIndex1
										{
											OFFSET 7.924831 -0.457527 2.345128
											CHANNELS 3 Xrotation Yrotation Zrotation
											JOINT LeftHandIndex2
											{
												OFFSET 3.643303 0.000000 0.000000
												CHANNELS 3 Xrotation Yrotation Zrotation
												JOINT LeftHandIndex3
												{
													OFFSET 3.810799 0.000000 0.000000
													CHANNELS 3 Xrotation Yrotation Zrotation
													JOINT LeftHandIndex4
													{
														OFFSET 2.403702 0.000000 0.000000
														CHANNELS 3 Xrotation Yrotation Zrotation
														End Site
														{
															OFFSET 0.000000 0.000000 0.000000
														}
													}
												}
											}
										}
										JOINT LeftHandMiddle1
										{
											OFFSET 8.563995 0.000000 -0.000000
											CHANNELS 3 Xrotation Yrotation Zrotation
											JOINT LeftHandMiddle2
											{
												OFFSET 3.861618 0.000000 0.000000
												CHANNELS 3 Xrotation Yrotation Zrotation
												JOINT LeftHandMiddle3
												{
													OFFSET 3.701603 0.000000 0.000000
													CHANNELS 3 Xrotation Yrotation Zrotation
													JOINT LeftHandMiddle4
													{
														OFFSET 2.322544 0.000000 0.000000
														CHANNELS 3 Xrotation Yrotation Zrotation
														End Site
														{
															OFFSET 0.000000 0.000000 0.000000
														}
													}
												}
											}
										}
										JOINT LeftHandRing1
										{
											OFFSET 8.426460 -0.424637 -3.286992
											CHANNELS 3 Xrotation Yrotation Zrotation
											JOINT LeftHandRing2
											{
												OFFSET 3.126408 0.000000 0.000000
												CHANNELS 3 Xrotation Yrotation Zrotation
												JOINT LeftHandRing3
												{
													OFFSET 3.085026 0.000000 0.000000
													CHANNELS 3 Xrotation Yrotation Zrotation
													JOINT LeftHandRing4
													{
														OFFSET 1.644005 0.000000 0.000000
														CHANNELS 3 Xrotation Yrotation Zrotation
														End Site
														{
															OFFSET 0.000000 0.000000 0.000000
														}
													}
												}
											}
										}
									}
								}
							}
						}
					}
					JOINT RightShoulder
					{
						OFFSET -2.196100 4.412496 0.070690
						CHANNELS 3 Xrotation Yrotation Zrotation
						JOINT RightShoulder_split
						{
							OFFSET -2.196100 4.412496 0.070690
							CHANNELS 3 Xrotation Yrotation Zrotation
							JOINT RightArm
							{
								OFFSET -8.771282 -2.981682 -0.094208
								CHANNELS 3 Xrotation Yrotation Zrotation
								JOINT RightForeArm
								{
									OFFSET -8.494598 0.000000 0.000000
									CHANNELS 3 Xrotation Yrotation Zrotation
									JOINT RightHand
									{
										OFFSET -18.483803 0.000000 0.000001
										CHANNELS 3 Xrotation Yrotation Zrotation
										JOINT RightHandThumb1
										{
											OFFSET -2.527351 -1.008072 2.575253
											CHANNELS 3 Xrotation Yrotation Zrotation
											JOINT RightHandThumb2
											{
												OFFSET -2.321518 -1.340328 1.340329
												CHANNELS 3 Xrotation Yrotation Zrotation
												JOINT RightHandThumb3
												{
													OFFSET -2.657753 -1.534454 1.534455
													CHANNELS 3 Xrotation Yrotation Zrotation
													JOINT RightHandThumb4
													{
														OFFSET -1.807510 -1.043568 1.043567
														CHANNELS 3 Xrotation Yrotation Zrotation
														End Site
														{
															OFFSET 0.000000 0.000000 0.000000
														}
													}
												}
											}
										}
										JOINT RightHandIndex1
										{
											OFFSET -8.811420 0.015533 2.887987
											CHANNELS 3 Xrotation Yrotation Zrotation
											JOINT RightHandIndex2
											{
												OFFSET -3.537502 0.000000 0.000000
												CHANNELS 3 Xrotation Yrotation Zrotation
												JOINT RightHandIndex3
												{
													OFFSET -3.356201 0.000000 0.000000
													CHANNELS 3 Xrotation Yrotation Zrotation
													JOINT RightHandIndex4
													{
														OFFSET -1.933098 0.000000 0.000000
														CHANNELS 3 Xrotation Yrotation Zrotation
														End Site
														{
															OFFSET 0.000000 0.000000 0.000000
														}
													}
												}
											}
										}
										JOINT RightHandMiddle1
										{
											OFFSET -8.178135 0.000000 0.000000
											CHANNELS 3 Xrotation Yrotation Zrotation
											JOINT RightHandMiddle2
											{
												OFFSET -3.901302 0.000000 0.000000
												CHANNELS 3 Xrotation Yrotation Zrotation
												JOINT RightHandMiddle3
												{
													OFFSET -3.909599 0.000000 0.000000
													CHANNELS 3 Xrotation Yrotation Zrotation
													JOINT RightHandMiddle4
													{
														OFFSET -2.376003 0.000000 0.000000
														CHANNELS 3 Xrotation Yrotation Zrotation
														End Site
														{
															OFFSET 0.000000 0.000000 0.000000
														}
													}
												}
											}
										}
										JOINT RightHandRing1
										{
											OFFSET -7.559013 0.014137 -2.865403
											CHANNELS 3 Xrotation Yrotation Zrotation
											JOINT RightHandRing2
											{
												OFFSET -3.449306 0.000000 0.000000
												CHANNELS 3 Xrotation Yrotation Zrotation
												JOINT RightHandRing3
												{
													OFFSET -3.362106 0.000000 0.000000
													CHANNELS 3 Xrotation Yrotation Zrotation
													JOINT RightHandRing4
													{
														OFFSET -2.076401 0.000000 0.000000
														CHANNELS 3 Xrotation Yrotation Zrotation
														End Site
														{
															OFFSET 0.000000 0.000000 0.000000
														}
													}
												}
											}
										}
									}
								}
							}
						}
					}
				}
			}
		}
	}
	JOINT LeftUpLeg
	{
		OFFSET 10.205400 -3.823500 0.155100
		CHANNELS 3 Xrotation Yrotation Zrotation
		JOINT LeftLeg
		{
			OFFSET 0.708757 -12.982077 0.567790
			CHANNELS 3 Xrotation Yrotation Zrotation
			JOINT LeftFoot
			{
				OFFSET -0.708756 -10.717838 -2.184338
				CHANNELS 3 Xrotation Yrotation Zrotation
				JOINT LeftToeBase
				{
					OFFSET 0.108149 -7.191104 7.560241
					CHANNELS 3 Xrotation Yrotation Zrotation
					JOINT LeftToe_End
					{
						OFFSET 0.070230 0.081724 4.490308
						CHANNELS 3 Xrotation Yrotation Zrotation
						End Site
						{
							OFFSET 0.000000 0.000000 0.000000
						}
					}
				}
			}
		}
	}
	JOINT RightUpLeg
	{
		OFFSET -10.205400 -3.823500 0.005500
		CHANNELS 3 Xrotation Yrotation Zrotation
		JOINT RightLeg
		{
			OFFSET -0.708756 -12.982134 0.610632
			CHANNELS 3 Xrotation Yrotation Zrotation
			JOINT RightFoot
			{
				OFFSET 0.708754 -10.717769 -1.945823
				CHANNELS 3 Xrotation Yrotation Zrotation
				JOINT RightToeBase
				{
					OFFSET -0.108140 -7.191069 7.372968
					CHANNELS 3 Xrotation Yrotation Zrotation
					JOINT RightToe_End
					{
						OFFSET -0.070227 0.081735 4.479403
						CHANNELS 3 Xrotation Yrotation Zrotation
						End Site
						{
							OFFSET 0.000000 0.000000 0.000000
						}
					}
				}
			}
		}
	}
}
MOTION
Frames: 6
Frame Time: 0.016667
-0.059307 33.177299 0.527748 -6.529842 7.419431 -0.240907 2.735381 1.588740 2.242288 2.229757 0.462799 2.709336 0.000000 0.000000 0.000000 1.815967 0.462783 2.663381 12.069588 -2.397795 -0.979292 1.367184 -8.878460 -6.544922 0.000001 0.000000 -0.000000 0.980227 -16.729759 -12.817459 0.000000 0.000000 0.000000 1.380162 -1.285192 -71.138701 0.000005 -0.000005 0.000011 -34.595533 -2.769038 -5.684765 -0.945039 2.085465 4.986305 11.826374 25.404998 17.117651 -13.812416 3.560486 9.013178 -0.000001 -0.000003 -0.000000 0.084261 -0.924056 -8.185784 0.267790 1.752619 -17.372871 0.057680 0.820897 -8.037373 -0.000001 -0.000000 0.000002 -0.073357 2.742591 -16.488403 0.269700 1.758712 -17.435299 0.301534 1.857006 -18.444485 0.000000 0.000002 -0.000004 0.084967 3.528588 -21.560636 0.386268 2.093838 -20.901992 0.282936 1.800316 -17.861723 -0.000001 0.000003 -0.000003 0.966147 8.437343 16.887337 0.000000 0.000000 0.000000 28.204750 8.686330 58.059743 -0.000021 3.688142 -0.000008 -18.173158 -1.917489 9.747773 -22.530615 4.903179 4.908397 9.518493 -27.760686 -21.071069 5.457353 -23.437480 -6.234851 -0.000002 -0.000002 0.000003 1.062325 -0.350875 19.899459 1.041850 -2.937728 39.046983 0.321179 -1.701145 21.381533 -0.000002 0.000001 -0.000001 0.381000 -4.016465 23.477870 1.260466 -3.188025 43.136545 0.727009 -2.500577 32.417608 -0.000001 0.000001 -0.000000 -0.717267 -1.494728 23.600438 0.643363 -2.363850 30.447091 0.567377 -2.229617 28.550706 0.000001 0.000003 0.000002 -22.578748 13.427200 14.611924 34.685285 0.513175 4.830788 -8.116972 -11.223875 -12.491839 -5.376514 0.000017 -0.000004 -0.000000 0.000001 0.000000 12.289266 -8.961849 5.248023 18.160238 -8.831127 -6.395560 -22.047352 -18.306041 6.497616 -6.948066 0.000041 0.000005 -0.000000 0.000002 -0.000000 
-0.037504 33.211803 0.531626 -6.292154 6.887512 -0.327188 2.710618 1.560613 2.234247 2.274833 0.425903 2.707982 0.000000 0.000000 0.000000 1.839811 0.425763 2.655624 11.829167 -2.244498 -0.934814 1.105654 -8.174214 -6.247969 -0.000000 -0.000000 0.000000 0.974899 -16.800889 -12.868811 0.000000 0.000000 0.000000 1.435872 -0.692802 -71.334298 0.000006 0.000001 -0.000003 -33.995586 -2.404720 -5.539998 -0.740810 2.177748 4.903578 11.791449 25.381046 17.236269 -13.838960 3.597895 9.036802 -0.000003 0.000000 0.000001 0.101988 -0.894345 -8.243471 0.267730 1.752491 -17.371572 0.057658 0.820772 -8.036132 0.000001 0.000001 -0.000001 -0.055498 2.807222 -16.539184 0.269551 1.758276 -17.430909 0.301394 1.856555 -18.439776 0.000001 -0.000000 -0.000002 0.092933 3.552176 -21.630337 0.386226 2.093764 -20.901228 0.282892 1.800161 -17.860096 -0.000000 -0.000001 0.000001 0.974211 8.465968 16.811928 0.000000 0.000000 0.000000 28.086911 7.872564 58.190418 -0.000001 3.162840 0.000017 -16.303855 -3.021917 9.938315 -22.319993 4.616044 2.964480 9.813051 -27.713945 -20.187891 4.764100 -23.407145 -6.786974 -0.000000 0.000001 0.000002 1.148886 -0.266904 17.459128 0.984717 -2.865929 37.918236 0.298748 -1.642731 20.612744 0.000001 -0.000001 -0.000000 0.390246 -4.036141 21.065234 1.179151 -3.099111 41.653881 0.685710 -2.434396 31.458540 -0.000000 -0.000002 0.000001 -0.617047 -1.495121 21.700918 0.595699 -2.280870 29.270516 0.522070 -2.144321 27.363565 -0.000001 -0.000002 -0.000003 -22.369542 13.484377 14.620148 34.423040 0.311171 4.729522 -8.167493 -10.524223 -12.448955 -5.365407 0.000005 0.000005 0.000000 -0.000002 -0.000000 11.812931 -9.006719 5.005525 18.146648 -8.837566 -6.322027 -21.798631 -17.711056 6.593281 -6.952097 0.000052 0.000008 0.000000 -0.000003 -0.000000 
-0.016959 33.245472 0.532444 -6.054656 6.312426 -0.428869 2.689909 1.541862 2.229514 2.323626 0.402818 2.709164 0.000000 0.000000 0.000000 1.868222 0.402408 2.651738 11.576154 -2.092929 -0.883113 0.830123 -7.486979 -5.921344 -0.000000 0.000000 -0.000000 0.973015 -16.881885 -12.893303 0.000000 0.000000 0.000000 1.489834 -0.193280 -71.539128 -0.000012 -0.000004 -0.000001 -33.441409 -2.085260 -5.380661 -0.610939 2.223739 4.844135 11.771015 25.366868 17.305775 -13.852462 3.618603 9.046422 -0.000003 -0.000003 -0.000002 0.109637 -0.882551 -8.256114 0.267711 1.752367 -17.370334 0.057639 0.820643 -8.034936 -0.000002 0.000000 0.000000 -0.045310 2.842772 -16.552350 0.269405 1.757778 -17.425689 0.301200 1.856019 -18.434331 -0.000000 -0.000002 0.000001 0.096601 3.562971 -21.660787 0.386220 2.093741 -20.900966 0.282863 1.800059 -17.858998 -0.000002 0.000000 0.000001 0.974412 8.574780 16.795587 0.000000 0.000000 0.000000 27.644538 6.868332 58.342124 -0.000004 2.537504 0.000004 -14.582053 -4.211713 10.110767 -21.901239 4.412114 1.458885 9.977217 -27.585637 -19.715636 3.995939 -23.458928 -7.260566 0.000003 0.000002 -0.000000 1.225522 -0.253441 15.752071 0.931943 -2.796956 36.850028 0.278562 -1.588025 19.896425 0.000000 -0.000000 0.000001 0.391770 -4.052723 19.475837 1.103357 -3.011871 40.232065 0.647587 -2.370987 30.548988 -0.000002 0.000001 0.000001 -0.553205 -1.507923 20.499308 0.554139 -2.205141 28.208640 0.482761 -2.066649 26.293773 -0.000004 -0.000001 -0.000001 -22.165340 13.536859 14.643627 34.191640 0.092470 4.642923 -8.241100 -9.768546 -12.408307 -5.353532 -0.000001 0.000005 0.000000 -0.000001 -0.000000 11.305659 -9.044158 4.766167 18.145612 -8.846434 -6.232980 -21.538856 -17.074167 6.677307 -6.960072 0.000061 0.000006 0.000001 0.000001 -0.000000 
0.002081 33.277325 0.530337 -5.820471 5.705615 -0.545989 2.672720 1.529652 2.228539 2.374962 0.388699 2.715267 0.000000 0.000000 0.000000 1.900021 0.387847 2.652639 11.317115 -1.943498 -0.825331 0.529279 -6.811788 -5.583148 0.000000 0.000000 -0.000000 0.974764 -16.968727 -12.889527 0.000000 0.000000 0.000000 1.560686 0.185214 -71.747804 0.000026 0.000001 0.000016 -32.970617 -1.827775 -5.223731 -0.552299 2.228794 4.808839 11.764077 25.361985 17.329353 -13.854432 3.624064 9.044355 -0.000003 -0.000001 -0.000001 0.108344 -0.885830 -8.232171 0.267652 1.752259 -17.369219 0.057640 0.820545 -8.033873 -0.000001 0.000002 -0.000001 -0.041767 2.853404 -16.534397 0.269260 1.757371 -17.421538 0.301068 1.855613 -18.430123 0.000003 0.000001 0.000001 0.096925 3.563576 -21.656004 0.386242 2.093787 -20.901356 0.282855 1.800031 -17.858778 0.000002 0.000001 -0.000003 0.968020 8.730554 16.828584 0.000000 0.000000 0.000000 26.972492 5.818287 58.456140 0.000006 1.888797 -0.000019 -13.024994 -5.397807 10.195377 -21.244180 4.286143 0.432293 10.018533 -27.381914 -19.635720 3.177381 -23.577880 -7.636039 -0.000001 0.000002 0.000005 1.298129 -0.326182 14.800255 0.883083 -2.730634 35.836896 0.260307 -1.536686 19.227029 -0.000000 -0.000002 -0.000000 0.397413 -4.079441 18.748813 1.034167 -2.928230 38.896500 0.613463 -2.312264 29.713918 -0.000000 0.000001 0.000002 -0.516342 -1.548211 20.026357 0.518667 -2.137747 27.272447 0.449370 -1.997707 25.352224 -0.000002 0.000001 0.000001 -21.975806 13.584713 14.686023 34.002174 -0.136388 4.572509 -8.341873 -8.977277 -12.371213 -5.341565 0.000006 0.000004 0.000000 -0.000000 -0.000000 10.778447 -9.071412 4.537438 18.152433 -8.858011 -6.128126 -21.271012 -16.407895 6.745894 -6.971111 0.000054 0.000004 0.000000 0.000002 0.000000 
0.019602 33.306717 0.525506 -5.592094 5.076731 -0.677640 2.658131 1.521165 2.233196 2.427193 0.378846 2.725928 0.000000 0.000000 0.000000 1.933558 0.377380 2.658371 11.059856 -1.796443 -0.761484 0.199264 -6.142647 -5.250598 0.000000 0.000000 0.000000 0.979841 -17.054158 -12.860000 0.000000 0.000000 0.000000 1.661550 0.422367 -71.953844 0.000021 0.000001 0.000011 -32.604567 -1.639570 -5.088860 -0.553120 2.206858 4.797477 11.767938 25.364597 17.316165 -13.848157 3.617906 9.034918 -0.000003 0.000001 -0.000000 0.100601 -0.899183 -8.186679 0.267643 1.752161 -17.368247 0.057604 0.820444 -8.032933 -0.000000 -0.000000 -0.000001 -0.043086 2.846210 -16.498730 0.269211 1.757187 -17.419672 0.301015 1.855436 -18.428252 -0.000000 -0.000000 0.000001 0.095257 3.557926 -21.627297 0.386273 2.093888 -20.902486 0.282879 1.800120 -17.859741 -0.000002 0.000001 -0.000004 0.957093 8.904118 16.894292 0.000000 0.000000 0.000000 26.167824 4.868377 58.493870 -0.000015 1.292169 -0.000008 -11.639608 -6.491782 10.118083 -20.366823 4.247776 -0.132287 9.970130 -27.123554 -19.855983 2.350973 -23.738316 -7.908059 -0.000001 -0.000006 0.000001 1.366380 -0.470806 14.511872 0.837446 -2.666382 34.867651 0.243623 -1.488020 18.595019 0.000000 -0.000003 -0.000002 0.409229 -4.113120 18.800323 0.971151 -2.848456 37.646141 0.583179 -2.258391 28.954244 0.000001 -0.000002 0.000001 -0.501830 -1.610839 20.207799 0.488629 -2.078492 26.456079 0.421203 -1.937189 24.531912 -0.000000 0.000000 0.000000 -21.806933 13.629178 14.750193 33.860929 -0.369527 4.516800 -8.471714 -8.168746 -12.337364 -5.330324 0.000016 -0.000000 0.000000 -0.000000 0.000000 10.240453 -9.088283 4.323130 18.163939 -8.872383 -6.006433 -20.997936 -15.720643 6.796734 -6.983753 0.000048 0.000002 0.000000 -0.000000 -0.000000 
0.035729 33.333687 0.518242 -5.370571 4.435089 -0.821337 2.645083 1.513896 2.239269 2.478574 0.369389 2.740062 0.000000 0.000000 0.000000 1.967090 0.367155 2.667788 10.811846 -1.651992 -0.690784 -0.156766 -5.475569 -4.935249 -0.000001 -0.000000 0.000000 0.987444 -17.130236 -12.810550 0.000000 0.000000 0.000000 1.797756 0.509540 -72.149959 0.000005 -0.000003 -0.000003 -32.351468 -1.517468 -4.993147 -0.595610 2.175452 4.807901 11.778729 25.372093 17.279291 -13.837578 3.604824 9.022926 -0.000002 0.000000 0.000001 0.089484 -0.916885 -8.136669 0.267618 1.752094 -17.367522 0.057593 0.820365 -8.032261 0.000000 -0.000000 0.000001 -0.047438 2.828585 -16.460754 0.269202 1.757112 -17.418868 0.300969 1.855339 -18.427350 0.000001 0.000001 -0.000002 0.092818 3.549933 -21.589110 0.386354 2.094075 -20.904460 0.282999 1.800506 -17.863597 0.000001 0.000001 0.000003 0.944082 9.072997 16.974559 0.000000 0.000000 0.000000 25.315516 4.137514 58.441380 -0.000008 0.810890 -0.000015 -10.460899 -7.415711 9.836914 -19.323459 4.313888 -0.305030 9.878495 -26.841694 -20.240410 1.560223 -23.913406 -8.091162 -0.000002 0.000000 0.000005 1.424772 -0.650133 14.708824 0.794026 -2.603003 33.922688 0.227997 -1.440756 17.983818 -0.000001 0.000001 -0.000000 0.421679 -4.137449 19.449365 0.912839 -2.771312 36.456708 0.555691 -2.208046 28.249297 -0.000000 -0.000001 0.000001 -0.509095 -1.673949 20.888342 0.463029 -2.026274 25.741267 0.397222 -1.883779 23.812558 -0.000000 0.000000 -0.000002 -21.659700 13.672208 14.836035 33.763350 -0.602983 4.471493 -8.625919 -7.358054 -12.304395 -5.319980 0.000014 0.000002 -0.000000 -0.000002 -0.000000 9.700272 -9.096625 4.122053 18.174182 -8.889017 -5.862743 -20.720822 -15.017525 6.826396 -6.996961 0.000048 0.000001 0.000001 -0.000000 -0.000000 
